<svg xmlns="http://www.w3.org/2000/svg" xmlns:xlink="http://www.w3.org/1999/xlink" width="500" zoomAndPan="magnify" viewBox="0 0 375 374.999991" height="500" preserveAspectRatio="xMidYMid meet" version="1.0"><defs><g/><clipPath id="2e4909da83"><path d="M 60 183 L 141.578125 183 L 141.578125 234 L 60 234 Z M 60 183 " clip-rule="nonzero"/></clipPath><clipPath id="d3b0e659ee"><path d="M 26.078125 118.441406 L 133 118.441406 L 133 238.441406 L 26.078125 238.441406 Z M 26.078125 118.441406 " clip-rule="nonzero"/></clipPath><clipPath id="03ccecfca3"><path d="M 101.3125 136.039062 L 105.613281 136.039062 L 105.613281 139.6875 L 101.3125 139.6875 Z M 101.3125 136.039062 " clip-rule="nonzero"/></clipPath><clipPath id="af58eb4149"><path d="M 105.601562 137.324219 C 103.648438 140.324219 101.925781 139.800781 101.550781 139.199219 C 101.101562 138.523438 101.476562 136.726562 102.074219 136.199219 C 102.675781 135.75 105 136.425781 105 136.425781 " clip-rule="nonzero"/></clipPath><clipPath id="4eb4046ad8"><path d="M 134.203125 150.0625 L 138.460938 150.0625 L 138.460938 153.746094 L 134.203125 153.746094 Z M 134.203125 150.0625 " clip-rule="nonzero"/></clipPath><clipPath id="a06f3c6bbf"><path d="M 138.449219 151.351562 C 136.574219 154.425781 134.773438 153.824219 134.398438 153.226562 C 134.023438 152.550781 134.324219 150.75 134.925781 150.300781 C 135.523438 149.773438 137.925781 150.449219 137.925781 150.449219 " clip-rule="nonzero"/></clipPath><clipPath id="9b473bcc9c"><path d="M 134.578125 150.664062 L 138.835938 150.664062 L 138.835938 154.347656 L 134.578125 154.347656 Z M 134.578125 150.664062 " clip-rule="nonzero"/></clipPath><clipPath id="7050cc6764"><path d="M 138.824219 151.949219 C 136.949219 155.023438 135.148438 154.425781 134.773438 153.824219 C 134.398438 153.148438 134.699219 151.351562 135.300781 150.898438 C 135.898438 150.375 138.300781 151.050781 138.300781 151.050781 " clip-rule="nonzero"/></clipPath><clipPath id="a8100fad60"><path d="M 138.335938 126.207031 L 353.144531 126.207031 L 353.144531 148.820312 L 138.335938 148.820312 Z M 138.335938 126.207031 " clip-rule="nonzero"/></clipPath><clipPath id="a1abe8977e"><path d="M 290.902344 148.519531 L 313.511719 148.519531 L 313.511719 212.566406 L 290.902344 212.566406 Z M 290.902344 148.519531 " clip-rule="nonzero"/></clipPath><clipPath id="3cc0b8ecb8"><path d="M 291 163 L 315 163 L 315 213 L 291 213 Z M 291 163 " clip-rule="nonzero"/></clipPath><clipPath id="41bd113d78"><path d="M 273.539062 197.40625 L 303.765625 162.070312 L 322.003906 177.671875 L 291.777344 213.007812 Z M 273.539062 197.40625 " clip-rule="nonzero"/></clipPath><clipPath id="93daafe75c"><path d="M 273.539062 197.40625 L 303.765625 162.070312 L 322.003906 177.671875 L 291.777344 213.007812 Z M 273.539062 197.40625 " clip-rule="nonzero"/></clipPath><clipPath id="5de80bd8df"><path d="M 298 194 L 327 194 L 327 222 L 298 222 Z M 298 194 " clip-rule="nonzero"/></clipPath><clipPath id="6c8612de31"><path d="M 298.117188 215.378906 L 317.234375 194.257812 L 335.6875 210.960938 L 316.570312 232.082031 Z M 298.117188 215.378906 " clip-rule="nonzero"/></clipPath><clipPath id="16b2da0ad3"><path d="M 326.117188 221.535156 L 317.203125 194.289062 L 298.117188 215.378906 Z M 326.117188 221.535156 " clip-rule="nonzero"/></clipPath></defs><rect x="-37.5" width="450" fill="#ffffff" y="-37.499999" height="449.999989" fill-opacity="1"/><rect x="-37.5" width="450" fill="#ffffff" y="-37.499999" height="449.999989" fill-opacity="1"/><g clip-path="url(#2e4909da83)"><path fill="#4caf50" d="M 119.535156 212.867188 C 123.144531 206.554688 125.210938 199.246094 125.210938 191.457031 C 125.210938 188.878906 124.984375 186.359375 124.550781 183.90625 C 122.800781 193.628906 117.636719 202.160156 110.335938 208.210938 C 106.113281 211.714844 99.824219 211.003906 96.519531 206.625 L 90.351562 198.453125 C 89.328125 197.09375 87.722656 196.292969 86.019531 196.292969 L 62.515625 196.292969 C 62.511719 196.292969 62.507812 196.292969 62.5 196.292969 C 60.898438 196.304688 59.859375 197.996094 60.578125 199.433594 L 61.515625 201.296875 C 63.253906 204.761719 66.675781 207.0625 70.539062 207.367188 L 71.933594 207.476562 L 78.027344 207.957031 C 79.753906 208.09375 81.308594 209.046875 82.210938 210.523438 L 84.976562 215.042969 L 86.523438 217.578125 L 95.195312 231.757812 C 95.347656 232.011719 95.542969 232.230469 95.761719 232.417969 C 96.398438 232.949219 97.257812 233.167969 98.09375 232.964844 C 98.101562 232.960938 98.105469 232.960938 98.113281 232.957031 C 120.601562 227.410156 137.925781 208.753906 141.523438 185.558594 C 138.367188 197.457031 130.257812 207.339844 119.535156 212.867188 " fill-opacity="1" fill-rule="nonzero"/></g><g clip-path="url(#d3b0e659ee)"><path fill="#000000" d="M 80.554688 211.539062 C 79.976562 210.59375 78.976562 209.980469 77.875 209.894531 L 70.386719 209.304688 C 65.875 208.949219 61.808594 206.214844 59.777344 202.167969 L 58.890625 200.40625 C 58.261719 199.148438 58.246094 197.648438 58.941406 196.429688 C 59.660156 195.171875 60.953125 194.398438 62.386719 194.351562 L 62.515625 194.347656 L 70.042969 194.347656 C 67.585938 190.476562 63.167969 188.296875 58.589844 188.726562 L 50.773438 189.457031 C 47.421875 189.769531 44.414062 187.460938 43.796875 184.152344 C 43.339844 181.703125 43.101562 179.175781 43.101562 176.589844 C 43.101562 163.492188 49.234375 151.824219 58.789062 144.308594 C 49.324219 150.539062 41.957031 159.699219 37.984375 170.5 C 41.566406 144.484375 63.882812 124.441406 90.882812 124.441406 C 107.597656 124.441406 122.515625 132.121094 132.308594 144.144531 C 121.902344 128.730469 104.292969 118.585938 84.308594 118.53125 C 52.320312 118.449219 26.140625 144.515625 26.09375 176.503906 C 26.078125 187.765625 29.269531 198.277344 34.804688 207.183594 C 34.921875 207.371094 35.035156 207.5625 35.15625 207.746094 L 42.90625 206.433594 C 46.367188 205.847656 49.214844 209.195312 48.039062 212.503906 C 48.007812 212.59375 47.988281 212.644531 47.988281 212.644531 C 52.976562 214.457031 52.132812 219.320312 52.132812 219.320312 C 56.539062 221.328125 54.726562 225.476562 54.726562 225.476562 C 56.285156 226.121094 56.828125 227.378906 56.96875 227.789062 C 57.042969 228 57.121094 228.207031 57.203125 228.417969 L 60.21875 236.148438 C 60.734375 237.476562 62.328125 238.566406 63.753906 238.566406 C 65.554688 238.566406 66.800781 236.765625 66.167969 235.082031 L 64.757812 231.328125 L 62.875 226.320312 C 62.742188 225.96875 62.984375 225.585938 63.363281 225.558594 C 63.613281 225.539062 63.839844 225.703125 63.933594 225.933594 L 66.40625 231.886719 L 68.238281 236.289062 C 68.867188 237.808594 70.53125 238.675781 72.109375 238.21875 C 73.996094 237.664062 74.9375 235.550781 74.082031 233.777344 C 74.082031 233.777344 74.082031 233.773438 74.082031 233.773438 L 69.554688 224.421875 C 69.359375 224.023438 69.625 223.550781 70.070312 223.507812 C 70.324219 223.480469 70.574219 223.613281 70.695312 223.839844 L 76.203125 234.105469 L 76.886719 235.378906 C 77.558594 236.636719 79.035156 237.289062 80.386719 236.839844 C 81.4375 236.492188 82.136719 235.613281 82.324219 234.621094 C 82.4375 234.011719 82.359375 233.363281 82.050781 232.765625 L 77.742188 224.414062 C 77.550781 224.042969 77.691406 223.574219 78.074219 223.414062 C 78.410156 223.273438 78.789062 223.417969 78.957031 223.730469 L 83.828125 232.933594 C 84.222656 233.679688 84.808594 234.253906 85.496094 234.636719 C 86.636719 235.269531 88.050781 235.359375 89.316406 234.761719 C 89.558594 234.648438 89.78125 234.507812 89.992188 234.359375 C 91.71875 233.101562 92.261719 230.6875 91.101562 228.792969 L 80.554688 211.539062 " fill-opacity="1" fill-rule="nonzero"/></g><path fill="#4caf50" d="M 38.4375 215.027344 L 44.53125 214.015625 C 46.359375 213.710938 47.597656 211.984375 47.292969 210.15625 C 46.992188 208.324219 45.261719 207.089844 43.433594 207.390625 L 37.335938 208.402344 C 35.507812 208.707031 34.269531 210.433594 34.574219 212.265625 C 34.878906 214.09375 36.605469 215.332031 38.4375 215.027344 " fill-opacity="1" fill-rule="nonzero"/><path fill="#4caf50" d="M 50.40625 216.765625 C 50.101562 214.933594 48.371094 213.699219 46.542969 214 L 38.222656 215.59375 C 36.394531 215.894531 35.15625 217.625 35.460938 219.453125 C 35.761719 221.28125 37.492188 222.519531 39.320312 222.214844 L 47.640625 220.625 C 49.472656 220.320312 50.707031 218.59375 50.40625 216.765625 " fill-opacity="1" fill-rule="nonzero"/><path fill="#4caf50" d="M 53.214844 223.675781 C 52.910156 221.847656 51.179688 220.609375 49.351562 220.914062 L 43.253906 221.925781 C 41.425781 222.226562 40.1875 223.957031 40.492188 225.785156 C 40.796875 227.617188 42.523438 228.851562 44.355469 228.546875 L 50.449219 227.539062 C 52.28125 227.234375 53.515625 225.503906 53.214844 223.675781 " fill-opacity="1" fill-rule="nonzero"/><path fill="#4caf50" d="M 53.585938 227.394531 L 48.578125 228.191406 C 46.75 228.492188 45.511719 230.222656 45.816406 232.050781 C 46.117188 233.882812 47.847656 235.117188 49.675781 234.816406 L 54.683594 234.019531 C 56.511719 233.714844 57.75 231.984375 57.445312 230.15625 C 57.144531 228.328125 55.414062 227.089844 53.585938 227.394531 " fill-opacity="1" fill-rule="nonzero"/><g clip-path="url(#03ccecfca3)"><g clip-path="url(#af58eb4149)"><path fill="#fdfdfd" d="M 98.550781 133.199219 L 108.683594 133.199219 L 108.683594 143.023438 L 98.550781 143.023438 Z M 98.550781 133.199219 " fill-opacity="1" fill-rule="nonzero"/></g></g><g clip-path="url(#4eb4046ad8)"><g clip-path="url(#a06f3c6bbf)"><path fill="#fdfdfd" d="M 131.398438 147.300781 L 141.53125 147.300781 L 141.53125 157.125 L 131.398438 157.125 Z M 131.398438 147.300781 " fill-opacity="1" fill-rule="nonzero"/></g></g><g clip-path="url(#9b473bcc9c)"><g clip-path="url(#7050cc6764)"><path fill="#fdfdfd" d="M 131.773438 147.898438 L 141.90625 147.898438 L 141.90625 157.726562 L 131.773438 157.726562 Z M 131.773438 147.898438 " fill-opacity="1" fill-rule="nonzero"/></g></g><g fill="#000000" fill-opacity="1"><g transform="translate(265.257927, 211.311982)"><g><path d="M 2.4375 -26.78125 C 2.4375 -27.71875 2.46875 -28.414062 2.53125 -28.875 C 2.59375 -29.34375 2.765625 -29.882812 3.046875 -30.5 C 3.617188 -31.5625 5.207031 -32.09375 7.8125 -32.09375 C 9.757812 -32.09375 11.140625 -31.742188 11.953125 -31.046875 C 12.648438 -30.472656 13.015625 -29.597656 13.046875 -28.421875 C 13.085938 -28.015625 13.109375 -27.425781 13.109375 -26.65625 L 13.109375 -5.3125 C 13.109375 -4.375 13.078125 -3.671875 13.015625 -3.203125 C 12.960938 -2.734375 12.769531 -2.195312 12.4375 -1.59375 C 11.914062 -0.53125 10.351562 0 7.75 0 C 5.1875 0 3.617188 -0.546875 3.046875 -1.640625 C 2.765625 -2.253906 2.59375 -2.785156 2.53125 -3.234375 C 2.46875 -3.679688 2.4375 -4.394531 2.4375 -5.375 Z M 12.46875 -38.09375 C 12.164062 -37.5 11.628906 -37.082031 10.859375 -36.84375 C 10.085938 -36.601562 9.0625 -36.484375 7.78125 -36.484375 C 6.5 -36.484375 5.46875 -36.601562 4.6875 -36.84375 C 3.914062 -37.082031 3.378906 -37.507812 3.078125 -38.125 C 2.773438 -38.738281 2.59375 -39.273438 2.53125 -39.734375 C 2.46875 -40.203125 2.4375 -40.90625 2.4375 -41.84375 C 2.4375 -42.78125 2.46875 -43.484375 2.53125 -43.953125 C 2.59375 -44.421875 2.765625 -44.9375 3.046875 -45.5 C 3.617188 -46.601562 5.207031 -47.15625 7.8125 -47.15625 C 10.375 -47.15625 11.914062 -46.601562 12.4375 -45.5 C 12.769531 -44.894531 12.960938 -44.359375 13.015625 -43.890625 C 13.078125 -43.421875 13.109375 -42.71875 13.109375 -41.78125 C 13.109375 -40.84375 13.078125 -40.140625 13.015625 -39.671875 C 12.960938 -39.210938 12.78125 -38.6875 12.46875 -38.09375 Z M 12.46875 -38.09375 "/></g></g></g><g clip-path="url(#a8100fad60)"><path fill="#4caf50" d="M 138.335938 126.207031 L 353.15625 126.207031 L 353.15625 148.820312 L 138.335938 148.820312 Z M 138.335938 126.207031 " fill-opacity="1" fill-rule="nonzero"/></g><path stroke-linecap="butt" transform="matrix(0.75, -0.000648756, 0.000648756, 0.75, 149.584903, 133.387491)" fill="none" stroke-linejoin="miter" d="M 0.00183144 5.498974 L 289.017586 5.498975 " stroke="#fdfdfd" stroke-width="11" stroke-opacity="1" stroke-miterlimit="4"/><path stroke-linecap="butt" transform="matrix(0.635798, 0.397821, -0.397821, 0.635798, 254.369753, 61.560121)" fill="none" stroke-linejoin="miter" d="M 0.00321836 5.500481 L 268.379271 5.500602 " stroke="#fdfdfd" stroke-width="11" stroke-opacity="1" stroke-miterlimit="4"/><path stroke-linecap="butt" transform="matrix(0.53033, -0.53033, 0.53033, 0.53033, 221.946801, 272.000958)" fill="none" stroke-linejoin="miter" d="M -0.000500148 5.499868 L 268.383368 5.499868 " stroke="#fdfdfd" stroke-width="11" stroke-opacity="1" stroke-miterlimit="4"/><g clip-path="url(#a1abe8977e)"><path fill="#4caf50" d="M 313.511719 148.519531 L 313.511719 212.558594 L 290.902344 212.558594 L 290.902344 148.519531 Z M 313.511719 148.519531 " fill-opacity="1" fill-rule="nonzero"/></g><g clip-path="url(#3cc0b8ecb8)"><g clip-path="url(#41bd113d78)"><g clip-path="url(#93daafe75c)"><path fill="#000000" d="M 303.832031 163.285156 L 294.695312 172.761719 C 294.144531 173.320312 294.53125 174.242188 295.328125 174.257812 L 300.574219 174.40625 C 301.089844 174.40625 301.441406 174.855469 301.4375 175.289062 L 301.011719 187.660156 C 300.96875 188.136719 300.644531 188.519531 300.128906 188.519531 L 293.90625 188.570312 L 292.042969 188.59375 C 291.527344 188.597656 291.164062 189.019531 291.15625 189.457031 L 291.128906 191.125 L 291.175781 211.546875 C 291.167969 211.984375 291.515625 212.355469 291.957031 212.4375 C 292.4375 212.480469 292.847656 212.171875 292.933594 211.726562 L 296.144531 194.898438 C 296.226562 194.457031 296.601562 194.1875 296.996094 194.160156 L 303.773438 194.066406 L 305.632812 194.039062 C 306.109375 194.003906 306.476562 193.65625 306.519531 193.179688 L 306.570312 191.308594 L 307 175.414062 C 306.996094 174.898438 307.445312 174.542969 307.882812 174.550781 L 313.128906 174.695312 C 313.925781 174.714844 314.328125 173.808594 313.808594 173.214844 L 305.179688 163.257812 C 304.796875 162.933594 304.160156 162.902344 303.832031 163.285156 Z M 303.832031 163.285156 " fill-opacity="1" fill-rule="nonzero"/></g></g></g><g fill="#4caf50" fill-opacity="1"><g transform="translate(143.430498, 194.570721)"><g><path d="M 26.84375 -26.390625 C 28.84375 -25.515625 29.84375 -24.453125 29.84375 -23.203125 C 29.84375 -22.585938 29.707031 -22.007812 29.4375 -21.46875 C 29.164062 -20.9375 29.03125 -20.648438 29.03125 -20.609375 L 15.75 9.0625 C 15.476562 9.707031 15.25 10.195312 15.0625 10.53125 C 14.882812 10.875 14.59375 11.195312 14.1875 11.5 C 13.78125 11.800781 13.269531 11.953125 12.65625 11.953125 C 12.050781 11.953125 11.160156 11.695312 9.984375 11.1875 C 7.984375 10.3125 6.984375 9.265625 6.984375 8.046875 C 6.984375 7.242188 8.609375 3.378906 11.859375 -3.546875 L 1.765625 -20.515625 C 1.097656 -21.628906 0.765625 -22.457031 0.765625 -23 C 0.765625 -24.082031 1.675781 -25.160156 3.5 -26.234375 C 4.644531 -26.910156 5.535156 -27.25 6.171875 -27.25 C 6.816406 -27.25 7.34375 -27.113281 7.75 -26.84375 C 8.15625 -26.570312 8.453125 -26.289062 8.640625 -26 C 8.828125 -25.71875 9.753906 -24.148438 11.421875 -21.296875 C 13.097656 -18.441406 14.691406 -15.785156 16.203125 -13.328125 C 16.378906 -13.867188 17.289062 -15.953125 18.9375 -19.578125 C 20.59375 -23.210938 21.476562 -25.144531 21.59375 -25.375 C 21.71875 -25.613281 21.914062 -25.898438 22.1875 -26.234375 C 22.625 -26.804688 23.238281 -27.09375 24.03125 -27.09375 C 24.832031 -27.09375 25.769531 -26.859375 26.84375 -26.390625 Z M 26.84375 -26.390625 "/></g></g></g><g fill="#4caf50" fill-opacity="1"><g transform="translate(172.502059, 194.570721)"><g><path d="M 10.390625 -13.34375 C 10.390625 -11.90625 10.859375 -10.789062 11.796875 -10 C 12.742188 -9.207031 13.75 -8.8125 14.8125 -8.8125 C 15.875 -8.8125 16.867188 -9.125 17.796875 -9.75 C 18.734375 -10.375 19.488281 -10.6875 20.0625 -10.6875 C 21.070312 -10.6875 22.304688 -9.789062 23.765625 -8 C 24.535156 -7.019531 24.921875 -6.144531 24.921875 -5.375 C 24.921875 -4.082031 23.992188 -2.878906 22.140625 -1.765625 C 20.210938 -0.421875 17.847656 0.25 15.046875 0.25 C 11.898438 0.25 8.878906 -0.878906 5.984375 -3.140625 C 4.597656 -4.222656 3.460938 -5.664062 2.578125 -7.46875 C 1.703125 -9.28125 1.265625 -11.273438 1.265625 -13.453125 C 1.265625 -15.628906 1.703125 -17.601562 2.578125 -19.375 C 3.460938 -21.144531 4.597656 -22.570312 5.984375 -23.65625 C 8.785156 -25.882812 11.769531 -27 14.9375 -27 C 16.226562 -27 17.476562 -26.820312 18.6875 -26.46875 C 19.90625 -26.113281 20.800781 -25.765625 21.375 -25.421875 L 22.1875 -24.921875 C 22.789062 -24.515625 23.265625 -24.191406 23.609375 -23.953125 C 24.484375 -23.285156 24.921875 -22.519531 24.921875 -21.65625 C 24.921875 -20.789062 24.566406 -19.820312 23.859375 -18.75 C 22.640625 -16.882812 21.472656 -15.953125 20.359375 -15.953125 C 19.722656 -15.953125 18.8125 -16.328125 17.625 -17.078125 C 17.019531 -17.648438 16.148438 -17.9375 15.015625 -17.9375 C 13.890625 -17.9375 12.835938 -17.53125 11.859375 -16.71875 C 10.878906 -15.90625 10.390625 -14.78125 10.390625 -13.34375 Z M 10.390625 -13.34375 "/></g></g></g><g fill="#4caf50" fill-opacity="1"><g transform="translate(198.687118, 194.570721)"><g><path d="M 2.03125 -34.796875 C 2.03125 -35.578125 2.050781 -36.160156 2.09375 -36.546875 C 2.144531 -36.929688 2.289062 -37.378906 2.53125 -37.890625 C 3 -38.804688 4.316406 -39.265625 6.484375 -39.265625 C 8.546875 -39.265625 9.828125 -38.804688 10.328125 -37.890625 C 10.597656 -37.378906 10.757812 -36.921875 10.8125 -36.515625 C 10.863281 -36.117188 10.890625 -35.53125 10.890625 -34.75 L 10.890625 -11.296875 C 10.890625 -10.078125 10.988281 -9.304688 11.1875 -8.984375 C 11.394531 -8.671875 11.84375 -8.515625 12.53125 -8.515625 C 13.226562 -8.515625 13.691406 -8.488281 13.921875 -8.4375 C 14.160156 -8.382812 14.453125 -8.238281 14.796875 -8 C 15.472656 -7.5625 15.8125 -6.363281 15.8125 -4.40625 C 15.8125 -2.28125 15.472656 -0.976562 14.796875 -0.5 C 13.910156 0.101562 11.816406 0.203125 8.515625 -0.203125 C 5.910156 -0.535156 4.21875 -1.394531 3.4375 -2.78125 C 2.5 -4.4375 2.03125 -7.070312 2.03125 -10.6875 Z M 2.03125 -34.796875 "/></g></g></g><g fill="#4caf50" fill-opacity="1"><g transform="translate(215.249042, 194.570721)"><g><path d="M 2.03125 -22.234375 C 2.03125 -23.015625 2.050781 -23.597656 2.09375 -23.984375 C 2.144531 -24.367188 2.289062 -24.816406 2.53125 -25.328125 C 3 -26.203125 4.316406 -26.640625 6.484375 -26.640625 C 8.109375 -26.640625 9.253906 -26.351562 9.921875 -25.78125 C 10.503906 -25.3125 10.8125 -24.585938 10.84375 -23.609375 C 10.875 -23.265625 10.890625 -22.773438 10.890625 -22.140625 L 10.890625 -4.40625 C 10.890625 -3.625 10.863281 -3.039062 10.8125 -2.65625 C 10.757812 -2.269531 10.597656 -1.820312 10.328125 -1.3125 C 9.890625 -0.4375 8.59375 0 6.4375 0 C 4.300781 0 3 -0.457031 2.53125 -1.375 C 2.289062 -1.875 2.144531 -2.304688 2.09375 -2.671875 C 2.050781 -3.046875 2.03125 -3.640625 2.03125 -4.453125 Z M 10.359375 -31.640625 C 10.109375 -31.148438 9.660156 -30.800781 9.015625 -30.59375 C 8.367188 -30.394531 7.515625 -30.296875 6.453125 -30.296875 C 5.390625 -30.296875 4.535156 -30.394531 3.890625 -30.59375 C 3.253906 -30.800781 2.804688 -31.15625 2.546875 -31.65625 C 2.296875 -32.164062 2.144531 -32.613281 2.09375 -33 C 2.050781 -33.382812 2.03125 -33.96875 2.03125 -34.75 C 2.03125 -35.53125 2.050781 -36.113281 2.09375 -36.5 C 2.144531 -36.882812 2.289062 -37.316406 2.53125 -37.796875 C 3 -38.703125 4.316406 -39.15625 6.484375 -39.15625 C 8.609375 -39.15625 9.890625 -38.703125 10.328125 -37.796875 C 10.597656 -37.285156 10.757812 -36.832031 10.8125 -36.4375 C 10.863281 -36.050781 10.890625 -35.46875 10.890625 -34.6875 C 10.890625 -33.914062 10.863281 -33.335938 10.8125 -32.953125 C 10.757812 -32.566406 10.609375 -32.128906 10.359375 -31.640625 Z M 10.359375 -31.640625 "/></g></g></g><g fill="#4caf50" fill-opacity="1"><g transform="translate(228.164305, 194.570721)"><g><path d="M 10.390625 -13.34375 C 10.390625 -11.90625 10.859375 -10.789062 11.796875 -10 C 12.742188 -9.207031 13.75 -8.8125 14.8125 -8.8125 C 15.875 -8.8125 16.867188 -9.125 17.796875 -9.75 C 18.734375 -10.375 19.488281 -10.6875 20.0625 -10.6875 C 21.070312 -10.6875 22.304688 -9.789062 23.765625 -8 C 24.535156 -7.019531 24.921875 -6.144531 24.921875 -5.375 C 24.921875 -4.082031 23.992188 -2.878906 22.140625 -1.765625 C 20.210938 -0.421875 17.847656 0.25 15.046875 0.25 C 11.898438 0.25 8.878906 -0.878906 5.984375 -3.140625 C 4.597656 -4.222656 3.460938 -5.664062 2.578125 -7.46875 C 1.703125 -9.28125 1.265625 -11.273438 1.265625 -13.453125 C 1.265625 -15.628906 1.703125 -17.601562 2.578125 -19.375 C 3.460938 -21.144531 4.597656 -22.570312 5.984375 -23.65625 C 8.785156 -25.882812 11.769531 -27 14.9375 -27 C 16.226562 -27 17.476562 -26.820312 18.6875 -26.46875 C 19.90625 -26.113281 20.800781 -25.765625 21.375 -25.421875 L 22.1875 -24.921875 C 22.789062 -24.515625 23.265625 -24.191406 23.609375 -23.953125 C 24.484375 -23.285156 24.921875 -22.519531 24.921875 -21.65625 C 24.921875 -20.789062 24.566406 -19.820312 23.859375 -18.75 C 22.640625 -16.882812 21.472656 -15.953125 20.359375 -15.953125 C 19.722656 -15.953125 18.8125 -16.328125 17.625 -17.078125 C 17.019531 -17.648438 16.148438 -17.9375 15.015625 -17.9375 C 13.890625 -17.9375 12.835938 -17.53125 11.859375 -16.71875 C 10.878906 -15.90625 10.390625 -14.78125 10.390625 -13.34375 Z M 10.390625 -13.34375 "/></g></g></g><path stroke-linecap="butt" transform="matrix(0.749977, 0.00590372, -0.00590372, 0.749977, 138.349301, 147.318799)" fill="none" stroke-linejoin="miter" d="M -0.00205834 2.002096 L 203.426113 1.999745 " stroke="#000000" stroke-width="4" stroke-opacity="1" stroke-miterlimit="4"/><path stroke-linecap="butt" transform="matrix(0.493551, -0.564718, 0.564718, 0.493551, 222.886703, 294.495245)" fill="none" stroke-linejoin="miter" d="M 0.0000737582 3.500047 L 343.352504 3.498052 " stroke="#fdfdfd" stroke-width="7" stroke-opacity="1" stroke-miterlimit="4"/><g clip-path="url(#5de80bd8df)"><g clip-path="url(#6c8612de31)"><g clip-path="url(#16b2da0ad3)"><path fill="#fdfdfd" d="M 298.117188 215.378906 L 317.234375 194.257812 L 335.6875 210.960938 L 316.570312 232.082031 Z M 298.117188 215.378906 " fill-opacity="1" fill-rule="nonzero"/></g></g></g></svg>